<?xml version="1.0" encoding="utf-8"?><!DOCTYPE svg PUBLIC "-//W3C//DTD SVG 1.0//EN" "http://www.w3.org/TR/2001/REC-SVG-20010904/DTD/svg10.dtd"><svg viewBox="0 0 32 34.09" xmlns="http://www.w3.org/2000/svg" xmlns:xlink="http://www.w3.org/1999/xlink"><style>:root>svg{display:none}:root>svg:target{display:block}</style><svg version="1.0" viewBox="0 0 8.672 18.944" id="icon-facebook" xmlns="http://www.w3.org/2000/svg"><path d="M6.275 3.356h2.398V0H5.795C2.656.181 1.54 2.387 1.948 6.114H0v3.518h1.959v9.312h3.837V9.632h2.857V6.114H5.787c-.022-1.045-.037-2.405.488-2.758z" fill="#fff"/></svg><svg version="1.0" viewBox="0 0 23.049 16.249" id="icon-tick" xmlns="http://www.w3.org/2000/svg"><path d="M22.801 1.299L21.75.248a.853.853 0 00-1.203 0L8.693 12.102 2.502 5.911a.853.853 0 00-1.203 0L.248 6.962a.852.852 0 000 1.202l7.837 7.837a.845.845 0 00.608.246c.22.002.44-.079.608-.246l13.5-13.5a.852.852 0 000-1.202z"/></svg><svg version="1.0" id="icon-twitter" x="0" y="0" viewBox="0 0 17.5 14.663" xml:space="preserve" xmlns="http://www.w3.org/2000/svg"><style>path{fill:#fff}</style><path fill-rule="evenodd" clip-rule="evenodd" d="M11.283.153c1.736-.484 3.074.264 3.685 1.15.694-.225 1.372-.47 2.072-.69-.004.841-.538 1.478-.883 1.728.704.165 1.343-.481 1.343-.481-.175.977-1.035 1.746-1.611 1.977-.239 6.592-3.272 10.956-10.382 10.823h-.46c-.422 0-4.29-.45-5.047-1.843 2.341.192 4.011-.412 4.835-1.15-.989-.293-2.761-.464-3.07-2.881.362.105.583.223 1.228.117C1.757 8.067.385 7.366.461 5.218c.294.319 1.1.523 1.381.461C1.117 5.444-.188 2.398.921.843 2.794 2.655 4.769 4.364 8.29 4.528c.216-2.24 1.171-3.74 2.993-4.375z" id="cW6EeEF_1_"/></svg><svg version="1.0" viewBox="0 0 16 20" id="icon-video-replay" xmlns="http://www.w3.org/2000/svg"><path d="M8 4V0L3 5l5 5V6c3.315 0 6 2.686 6 6s-2.685 6-6 6-6-2.686-6-6H0c0 4.42 3.58 8 8 8s8-3.58 8-8-3.58-8-8-8z"/></svg><svg version="1.0" id="icon-youtube" x="0" y="0" viewBox="0 0 19.979 14.015" xml:space="preserve" xmlns="http://www.w3.org/2000/svg"><style>path{fill:#fff}</style><path d="M17.145 0H2.835A2.842 2.842 0 000 2.835v8.345a2.842 2.842 0 002.835 2.835h14.31a2.842 2.842 0 002.835-2.835V2.835A2.844 2.844 0 0017.145 0zM7.036 10.392V3.623l6.769 3.384-6.769 3.385z"/></svg><svg viewBox="0 0 26.943 34.09" id="logo-htmlacademy" xmlns="http://www.w3.org/2000/svg"><path d="M13.62.017L13.472 0 0 1.412v24.661l13.473 8.017 13.43-7.99.042-.025V1.412L13.62.017zm11.399 12.11L13.495 5.334l-.001-.104-.087.05-.088-.056v.109L1.925 12.118V3.147l11.548-1.212L25.02 3.147v8.98zm-11.614-5.34L24.923 13.5l-4.479 2.64-7.093-4.221-.014 1.415 5.904 3.513-.86.507-5.03-2.992-.014 1.415 3.827 2.275-.782.523-3.031-1.787-.014 1.413 1.853 1.091-1.8 1.081-11.356-6.751 11.371-6.835zm-11.48 8.34l11.411 6.791.016 1.044-7.942-4.728-.015 1.416 7.979 4.795.018 1.076-7.973-4.74-.013 1.414 8.021 4.822.046.025 8.143-4.872-.011-5.177 3.415-2.036v10.021L13.472 31.85 1.925 24.979v-9.852z"/></svg><svg viewBox="0 0 20 20" id="video_fullscreen" xmlns="http://www.w3.org/2000/svg"><defs><style>.gcls-1{fill:#444545}</style></defs><g id="gСлой_2" data-name="Слой 2"><g id="gLayer_1" data-name="Layer 1"><path class="gcls-1" d="M0 0v6h3V3h3V0H0zM3 14H0v6h6v-3H3v-3zM17 0h-3v3h3v3h3V0h-3zM17 17h-3v3h6v-6h-3v3z"/></g></g></svg><svg viewBox="0 0 32 20" id="video_subtitle" xmlns="http://www.w3.org/2000/svg"><defs><style>.hcls-1{fill:#444545}</style></defs><g id="hСлой_2" data-name="Слой 2"><path class="hcls-1" d="M29 0H3a3 3 0 00-3 3v14a3 3 0 003 3h26a3 3 0 003-3V3a3 3 0 00-3-3zM14.4 15.85a8.58 8.58 0 01-1.68.16 6 6 0 01-2-.32 4.21 4.21 0 01-1.65-1A5.13 5.13 0 018 12.79 8.12 8.12 0 017.55 10 7.56 7.56 0 018 7.15 5.2 5.2 0 019.25 5.3a4.53 4.53 0 011.68-1 5.86 5.86 0 011.85-.3 9 9 0 011.68.13 6.07 6.07 0 011.13.31l-.45 1.92a3.31 3.31 0 00-.9-.26A8.27 8.27 0 0013 6a2.76 2.76 0 00-2.21 1 4.59 4.59 0 00-.84 3 6.27 6.27 0 00.2 1.63 3.51 3.51 0 00.6 1.26 2.78 2.78 0 001 .81 3.19 3.19 0 001.4.29 4.55 4.55 0 001.26-.15 3.71 3.71 0 00.89-.38l.46 1.84a3.48 3.48 0 01-1.36.55zm8.7 0a8.59 8.59 0 01-1.68.16 6 6 0 01-2-.32 4.21 4.21 0 01-1.65-1 5.13 5.13 0 01-1.13-1.87 8.12 8.12 0 01-.39-2.82 7.56 7.56 0 01.47-2.85 5.2 5.2 0 011.22-1.85 4.53 4.53 0 011.68-1 5.86 5.86 0 011.85-.3 9 9 0 011.68.13 6 6 0 011.13.31l-.45 1.92a3.29 3.29 0 00-.9-.26 8.28 8.28 0 00-1.26-.1 2.76 2.76 0 00-2.21 1 4.59 4.59 0 00-.84 3 6.28 6.28 0 00.2 1.63 3.51 3.51 0 00.6 1.26 2.77 2.77 0 001 .81 3.19 3.19 0 001.4.29 4.55 4.55 0 001.26-.15 3.71 3.71 0 00.89-.38l.46 1.84a3.48 3.48 0 01-1.33.55z" id="hLayer_1" data-name="Layer 1"/></g></svg></svg>